<?xml version="1.0" encoding="utf-8"?>
<!-- Generator: Adobe Illustrator 19.0.0, SVG Export Plug-In . SVG Version: 6.00 Build 0)  -->
<svg version="1.1" id="Layer_1" xmlns="http://www.w3.org/2000/svg" xmlns:xlink="http://www.w3.org/1999/xlink" x="0px" y="0px"
	 viewBox="0 0 708.7 161.6" style="enable-background:new 0 0 708.7 161.6;" xml:space="preserve">
<style type="text/css">
	.st0{fill:#FFFFFF;}
</style>
<g id="XMLID_229_">
	<path id="XMLID_21_" class="st0" d="M251,117.8c-8.7,0-15.5-2.7-20.4-8s-7.3-13-7.3-23.1c0-10.2,2.5-18,7.4-23.5
		c4.9-5.5,11.9-8.3,21-8.3c2.9,0,5.9,0.3,8.8,0.9c2.9,0.6,4.5,1.3,4.5,1.3c1.4,0.6,2.2,2.3,1.6,3.7l-1.1,3c-0.5,1.5-2.2,2.3-3.7,1.8
		c0,0-6.8-2.1-10.4-2.1c-6.1,0-10.6,1.9-13.5,5.8c-2.9,3.8-4.4,9.6-4.4,17.2c0,7.3,1.5,12.9,4.4,16.8c2.9,3.9,7.2,5.8,12.9,5.8
		c5.3,0,13.1-2.6,13.1-2.6c1.5-0.5,2.7,0.4,2.7,1.9v3.2c0,1.6-1.2,3.3-2.7,3.8C263.9,115.4,257.2,117.8,251,117.8z"/>
	<path id="XMLID_18_" class="st0" d="M333.7,86.2c0,9.9-2.5,17.6-7.5,23.2c-5,5.6-11.9,8.3-20.8,8.3c-5.5,0-10.3-1.3-14.6-3.8
		c-4.2-2.6-7.5-6.2-9.8-11c-2.3-4.8-3.4-10.3-3.4-16.7c0-9.9,2.5-17.6,7.4-23.1c4.9-5.5,11.9-8.3,20.8-8.3c8.5,0,15.3,2.8,20.4,8.4
		C331.1,68.9,333.7,76.6,333.7,86.2z M287.9,86.2c0,7.6,1.5,13.4,4.5,17.4c3,4,7.4,5.9,13.3,5.9c5.8,0,10.2-2,13.2-5.9
		c3-4,4.5-9.7,4.5-17.4c0-7.6-1.5-13.4-4.6-17.2c-3-3.8-7.5-5.8-13.3-5.8C293.7,63.3,287.9,70.9,287.9,86.2z"/>
	<path id="XMLID_16_" class="st0" d="M429.4,116.7c-1.6,0-2.8-1.3-2.8-2.8V80.4c0-1.6-0.4-4.1-0.8-5.6c0,0-3.3-11.6-11.5-11.6
		c-5.6,0-9.8,1.6-12.4,4.9c-2.7,3.3-3.7,12.2-3.7,12.2c-0.2,1.5-0.3,4.1-0.3,5.7v27.8c0,1.6-1.3,2.8-2.8,2.8h-4.2
		c-1.6,0-2.8-1.3-2.8-2.8V80.4c0-1.6-0.2-4.1-0.3-5.6c0,0-0.7-5.6-2.7-8c-2-2.4-5.1-3.6-9.4-3.6c-5.6,0-9.7,1.7-12.3,5.1
		c-2.6,3.4-3.6,14-3.6,14c-0.2,1.6-0.3,4.1-0.3,5.7v25.8c0,1.6-1.3,2.8-2.8,2.8h-4.3c-1.6,0-2.8-1.3-2.8-2.8v-55
		c0-1.6,1.3-2.8,2.8-2.8h2.3c1.6,0,3.1,1.3,3.3,2.8l0.5,2.7c0.3,1.5,0.6,2.8,0.8,2.8s1.1-1,2-2.2c0,0,2.4-3,5.6-4.7
		c3.1-1.7,6.7-2.5,10.6-2.5c9.5,0,16.7,8,16.7,8c1,1.2,2,2.1,2.2,2.1s1.1-1,2.1-2.2c0,0,2.8-3.5,6.2-5.3c3.4-1.8,7.2-2.7,11.5-2.7
		c6.8,0,12,1.8,15.4,5.3c3.4,3.5,4.8,14.1,4.8,14.1c0.2,1.5,0.4,4.1,0.4,5.6v33.8c0,1.6-1.3,2.8-2.8,2.8H429.4z"/>
	<path id="XMLID_14_" class="st0" d="M483.1,60.9c0,1.6-1.3,2.8-2.8,2.8h-9.6c-1.6,0-2.8,1.3-2.8,2.8v47.2c0,1.6-1.3,2.8-2.8,2.8
		h-4.3c-1.6,0-2.8-1.3-2.8-2.8V66.6c0-1.6-1.3-2.8-2.8-2.8h-4.9c-1.6,0-2.8-1-2.8-2.3c0-1.3,1.2-2.7,2.7-3.2l5.2-1.7
		c1.5-0.5,2.7-1.7,2.7-2.6s0.2-3,0.4-4.6c0,0,1.3-10.1,4.5-13.8c3.2-3.7,8.2-5.5,14.9-5.5c3.9,0,9,1.3,9,1.3
		c1.5,0.4,2.3,1.9,1.8,3.4l-0.8,2.4c-0.5,1.5-2.1,2.4-3.7,2c0,0-3.7-0.9-6.3-0.9c-3.4,0-5.8,1.1-7.5,3.3c-1.6,2.2-2.2,7.7-2.2,7.7
		c-0.2,1.6-0.3,3.7-0.3,4.8s1.3,2,2.8,2h9.6c1.6,0,2.8,1.3,2.8,2.8V60.9z"/>
	<path id="XMLID_12_" class="st0" d="M504,113.8c0,1.6-1.3,2.8-2.8,2.8h-4.3c-1.6,0-2.8-1.3-2.8-2.8V33.6c0-1.6,1.3-2.8,2.8-2.8h4.3
		c1.6,0,2.8,1.3,2.8,2.8V113.8z"/>
	<path id="XMLID_9_" class="st0" d="M563.5,116.7c-1.6,0-3.1-1.2-3.5-2.8l-0.7-3.1c-0.3-1.5-0.7-2.8-0.8-2.8c-0.1,0-1.1,0.9-2.2,2.1
		c0,0-4.1,4.3-7.1,5.6s-6.8,2-11.3,2c-6,0-10.6-1.6-14-4.7c-3.4-3.1-5.1-7.5-5.1-13.3c0-12.3,26.4-18.7,26.4-18.7
		c1.5-0.4,4-0.7,5.6-0.8l4.6-0.2c1.6-0.1,2.8-0.9,2.8-1.9s-0.2-3.1-0.3-4.6c0,0-0.6-5.2-2.6-7.4c-2-2.2-5.2-3.3-9.6-3.3
		c-3.2,0-6.2,0.5-9.1,1.4c-2.9,1-5.4,2.1-5.4,2.1c-1.4,0.6-3.1-0.1-3.7-1.5l-0.9-2.2c-0.6-1.4,0.1-3.2,1.5-3.8c0,0,3.8-1.7,7.4-2.6
		c3.6-0.9,7.2-1.4,10.7-1.4c7.3,0,12.8,1.6,16.3,4.9c3.6,3.2,4.9,12.7,4.9,12.7c0.2,1.5,0.4,4.1,0.4,5.6v35.6c0,1.6-1.3,2.8-2.8,2.8
		H563.5z M540.2,109.8c5.6,0,9.9-1.5,13.1-4.5c3.2-3,4.3-10,4.3-10c0.3-1.5,0.5-4,0.5-5.5s-1.3-2.7-2.8-2.6l-3.3,0.1
		c-1.6,0.1-4.1,0.3-5.6,0.4c0,0-9.2,1-12.4,3c-3.2,2-4.8,5-4.8,9.2c0,3.2,1,5.6,2.9,7.3C534,108.9,536.7,109.8,540.2,109.8z"/>
	<path id="XMLID_7_" class="st0" d="M615,54.9c2.7,0,4.3,0.2,4.3,0.2c1.5,0.2,2.6,1.7,2.4,3.2l-0.5,3.5c-0.2,1.5-1.6,2.6-3.2,2.3
		c0,0-1.6-0.3-3.8-0.3c-3.2,0-6.2,0.9-8.9,2.7s-4.9,4.2-6.4,7.3c-1.5,3.1-2,7.5-2,7.5c-0.2,1.6-0.3,4.1-0.3,5.7v26.7
		c0,1.6-1.3,2.8-2.8,2.8h-4.3c-1.6,0-2.8-1.3-2.8-2.8v-55c0-1.6,1.3-2.8,2.8-2.8h2.5c1.6,0,3,1.3,3.1,2.8l0.5,5.5
		c0.2,1.6,0.4,2.8,0.5,2.8c0.1,0,1-1,1.9-2.3c0,0,3.4-4.7,6.6-6.8C607.8,55.9,611.3,54.9,615,54.9z"/>
	<path id="XMLID_4_" class="st0" d="M658.1,117.8c-9.1,0-16.2-2.8-21.4-8.3c-5.2-5.5-7.8-13.1-7.8-22.7c0-9.7,2.4-17.5,7.2-23.2
		c4.8-5.8,11.3-8.6,19.6-8.6c7.6,0,13.7,2.5,18.2,7.4c4.5,4.9,6.4,17.2,6.4,17.2c0.2,1.5,0.4,4.1,0.4,5.6v0.4c0,1.6-1.3,2.8-2.8,2.8
		h-35.9c-1.6,0-2.6,1.3-2.4,2.8c0,0,1.5,9.3,4.8,12.9c3.3,3.6,8,5.4,14.1,5.4c3.2,0,6.3-0.3,9.2-0.9c2.9-0.6,7.6-2.3,7.6-2.3
		c1.5-0.6,2.7,0.3,2.7,1.8v3.1c0,1.6-1.2,3.3-2.7,3.8c0,0-3.8,1.4-6.8,2C665.6,117.5,662.1,117.8,658.1,117.8z M655.7,63
		c-4.8,0-8.5,1.5-11.3,4.6c-2.8,3.1-4.3,10-4.3,10c-0.3,1.5,0.7,2.8,2.2,2.8h25.2c1.6,0,2.7-1.3,2.4-2.8c0,0-1-7.2-3.5-10.1
		C663.9,64.5,660.3,63,655.7,63z"/>
	<path id="XMLID_2_" class="st0" d="M694.6,110.5c0-1.4,0.2-2.6,0.6-3.6c0.4-1,0.9-1.8,1.5-2.4s1.4-1,2.2-1.3
		c0.8-0.3,1.8-0.4,2.8-0.4c1,0,1.9,0.1,2.7,0.4s1.6,0.7,2.2,1.3c0.6,0.6,1.1,1.4,1.5,2.4c0.4,1,0.6,2.2,0.6,3.6
		c0,1.4-0.2,2.5-0.6,3.5c-0.4,1-0.9,1.8-1.5,2.4c-0.6,0.6-1.4,1.1-2.2,1.4c-0.9,0.3-1.8,0.4-2.7,0.4c-1,0-1.9-0.1-2.8-0.4
		c-0.8-0.3-1.6-0.8-2.2-1.4c-0.6-0.6-1.1-1.4-1.5-2.4S694.6,111.9,694.6,110.5z"/>
</g>
<g id="XMLID_210_">
	<g id="XMLID_227_">
		<path id="XMLID_235_" class="st0" d="M148.4,60.2c-1.9,0-3.7-1.3-4.3-3.2c-3.5-11.8-9.6-22.2-18.1-31.1
			c-7.3-7.6-15.9-13.4-25.6-17.4c-2.3-0.9-3.4-3.5-2.4-5.8c0.9-2.3,3.5-3.4,5.8-2.4c10.8,4.4,20.4,11,28.6,19.4
			c9.4,9.7,16.4,21.8,20.2,34.7c0.7,2.4-0.7,4.8-3,5.5C149.3,60.1,148.9,60.2,148.4,60.2z"/>
	</g>
	<g id="XMLID_226_">
		<path id="XMLID_233_" class="st0" d="M130.3,137.5c-1.1,0-2.2-0.4-3-1.2c-1.8-1.7-1.9-4.5-0.2-6.3c11.2-12,18-26.9,19.8-43.2
			c0.3-2.4,2.4-4.2,4.9-3.9c2.4,0.3,4.2,2.5,3.9,4.9c-2,18.2-9.7,34.9-22.2,48.3C132.6,137.1,131.4,137.5,130.3,137.5z"/>
	</g>
	<g id="XMLID_225_">
		<path id="XMLID_232_" class="st0" d="M123,104.2c-0.5,0-1.1-0.1-1.7-0.3c-2.3-0.9-3.4-3.5-2.5-5.8c8.6-21.4,1.6-45.8-17-59.5
			c-1.9-1.4-3.9-2.7-6-3.8c-2.2-1.2-3-3.8-1.8-6s3.9-3,6-1.8c2.4,1.3,4.8,2.8,7,4.4c21.9,16,30.1,44.8,20,69.9
			C126.4,103.1,124.8,104.2,123,104.2z"/>
	</g>
	<g id="XMLID_223_">
		<path id="XMLID_230_" class="st0" d="M36.2,154.5c-0.7,0-1.3-0.1-2-0.5c-8.6-4.3-16.4-10-23.2-17c-3.9-4-7.3-8.4-10.3-13
			c-1.3-2.1-0.7-4.8,1.3-6.1c2.1-1.3,4.8-0.7,6.1,1.3c2.7,4.2,5.8,8.1,9.3,11.7c6,6.2,13,11.4,20.7,15.2c2.2,1.1,3.1,3.8,2,5.9
			C39.4,153.6,37.8,154.5,36.2,154.5z"/>
	</g>
	<g id="XMLID_221_">
		<path id="XMLID_209_" class="st0" d="M71.9,161.6c-1.6,0-3.2,0-4.8-0.1c-2.4-0.1-4.3-2.2-4.2-4.7c0.1-2.4,2.3-4.3,4.7-4.2
			c8.8,0.5,17.6-0.5,26-3.1c2.4-0.7,4.8,0.6,5.5,3c0.7,2.3-0.6,4.8-3,5.5C88.3,160.5,80.1,161.6,71.9,161.6z"/>
	</g>
	<g id="XMLID_217_">
		<path id="XMLID_208_" class="st0" d="M72.1,138.5c-12.3,0-24.6-3.8-35.1-11.5c-6-4.4-11-9.8-15-16c-1.3-2.1-0.7-4.8,1.4-6.1
			c2.1-1.3,4.8-0.7,6.1,1.4c3.4,5.3,7.7,9.9,12.8,13.6c18.6,13.6,44,13,61.9-1.6c1.9-1.6,4.7-1.3,6.2,0.6c1.6,1.9,1.3,4.7-0.6,6.2
			C98.8,134,85.5,138.5,72.1,138.5z"/>
	</g>
</g>
<g id="XMLID_207_">
	<path id="XMLID_206_" class="st0" d="M98.2,98.5c-11.2,14.6-32,17.4-46.6,6.2C39,95.1,21.5,49.6,21.5,49.6
		c-1.4-3.7-1.1-3.8,0.7-0.3c0,0,6.1,11.7,10.5,15.1c6.6,5,16,3.8,21-2.8c5-6.6,3.8-16-2.8-21c-4.3-3.2-15.2-7-15.2-7
		c-3.7-1.3-3.6-1.6,0.2-0.8c0,0,43.7,9.8,56,19.1C106.6,63.1,109.4,83.9,98.2,98.5z"/>
</g>
</svg>
